<mxfile host="app.diagrams.net" agent="Mozilla/5.0 (Macintosh; Intel Mac OS X 10_15_7) AppleWebKit/605.1.15 (KHTML, like Gecko) Version/18.3 Safari/605.1.15" version="27.1.4">
  <diagram name="Page-1" id="LA0WgAzPUKfK-YAjL8oL">
    <mxGraphModel dx="465" dy="283" grid="1" gridSize="10" guides="1" tooltips="1" connect="1" arrows="1" fold="1" page="1" pageScale="1" pageWidth="850" pageHeight="1100" math="0" shadow="0">
      <root>
        <mxCell id="0" />
        <mxCell id="1" parent="0" />
        <mxCell id="eSe9y-DJVeqRm6aaibfE-1" value="" style="shape=cube;whiteSpace=wrap;html=1;boundedLbl=1;backgroundOutline=1;darkOpacity=0.05;darkOpacity2=0.1;rotation=90;" vertex="1" parent="1">
          <mxGeometry x="240" y="160" width="200" height="170" as="geometry" />
        </mxCell>
        <mxCell id="eSe9y-DJVeqRm6aaibfE-3" value="" style="whiteSpace=wrap;html=1;" vertex="1" parent="1">
          <mxGeometry x="280" y="170" width="90" height="40" as="geometry" />
        </mxCell>
        <mxCell id="eSe9y-DJVeqRm6aaibfE-4" value="" style="shape=process;whiteSpace=wrap;html=1;backgroundOutline=1;" vertex="1" parent="1">
          <mxGeometry x="310" y="210" width="30" height="60" as="geometry" />
        </mxCell>
        <mxCell id="eSe9y-DJVeqRm6aaibfE-8" value="" style="rounded=0;whiteSpace=wrap;html=1;rotation=90;" vertex="1" parent="1">
          <mxGeometry x="290" y="290" width="60" height="10" as="geometry" />
        </mxCell>
        <mxCell id="eSe9y-DJVeqRm6aaibfE-9" value="" style="rounded=0;whiteSpace=wrap;html=1;rotation=90;" vertex="1" parent="1">
          <mxGeometry x="305" y="290" width="60" height="10" as="geometry" />
        </mxCell>
        <mxCell id="eSe9y-DJVeqRm6aaibfE-10" value="" style="swimlane;startSize=0;" vertex="1" parent="1">
          <mxGeometry x="295" y="320" width="60" height="20" as="geometry" />
        </mxCell>
        <mxCell id="eSe9y-DJVeqRm6aaibfE-12" value="" style="endArrow=none;html=1;rounded=0;" edge="1" parent="eSe9y-DJVeqRm6aaibfE-10">
          <mxGeometry width="50" height="50" relative="1" as="geometry">
            <mxPoint x="29.76" y="-2.5" as="sourcePoint" />
            <mxPoint x="29.76" y="22.5" as="targetPoint" />
            <Array as="points" />
          </mxGeometry>
        </mxCell>
        <mxCell id="eSe9y-DJVeqRm6aaibfE-11" style="edgeStyle=orthogonalEdgeStyle;rounded=0;orthogonalLoop=1;jettySize=auto;html=1;exitX=0.5;exitY=1;exitDx=0;exitDy=0;entryX=1;entryY=0.75;entryDx=0;entryDy=0;" edge="1" parent="1" source="eSe9y-DJVeqRm6aaibfE-10" target="eSe9y-DJVeqRm6aaibfE-10">
          <mxGeometry relative="1" as="geometry" />
        </mxCell>
      </root>
    </mxGraphModel>
  </diagram>
</mxfile>
